<svg width="41" height="11" viewBox="0 0 41 11" fill="none" xmlns="http://www.w3.org/2000/svg">
<path d="M5.36864 10.14C4.94864 10.14 4.59864 10 4.31864 9.72C4.04798 9.44 3.86131 9.02 3.75864 8.46L3.40864 6.64C3.32464 6.18267 3.16598 5.86067 2.93264 5.674C2.70864 5.478 2.42398 5.38 2.07864 5.38H1.58864V10H0.328646V0.200005H1.58864V4.4H2.07864C2.66664 4.4 3.06331 3.98 3.26864 3.14L3.61864 1.74C3.75864 1.18 3.96398 0.760005 4.23464 0.480006C4.50531 0.200006 4.83664 0.0600056 5.22864 0.0600056C5.43398 0.0600056 5.62531 0.0833389 5.80264 0.130005C5.97998 0.167339 6.06864 0.190672 6.06864 0.200005V0.830005C5.73264 0.830005 5.48064 0.909339 5.31264 1.06801C5.14464 1.21734 5.02331 1.44134 4.94864 1.74L4.59864 3.14C4.45864 3.70934 4.29531 4.11534 4.10864 4.358C3.92198 4.60067 3.66531 4.76867 3.33864 4.862V4.918C3.72131 5.02067 4.02464 5.198 4.24864 5.45C4.47264 5.69267 4.63598 6.08934 4.73864 6.64L5.08864 8.46C5.14464 8.73067 5.26131 8.95 5.43864 9.118C5.62531 9.286 5.88198 9.37 6.20864 9.37V10C6.20864 10.0093 6.11998 10.0327 5.94264 10.07C5.76531 10.1167 5.57398 10.14 5.36864 10.14ZM8.74428 10.14C8.37095 10.14 7.90428 10.0467 7.34428 9.86V9.23H8.32428C8.71628 9.23 9.02428 9.08533 9.24828 8.796C9.48161 8.50667 9.67761 7.97467 9.83628 7.2C8.74428 7.2 8.04895 6.64 7.75028 5.52L6.28028 0.200005H7.54028L9.01028 5.52C9.08495 5.76267 9.20628 5.954 9.37428 6.094C9.54228 6.22467 9.75695 6.29 10.0183 6.29L11.2503 0.200005H12.5103L10.9843 7.76C10.8163 8.6 10.5549 9.20667 10.2003 9.58C9.85495 9.95333 9.36961 10.14 8.74428 10.14ZM13.7681 10V0.200005H19.2281V10H17.9681V1.18H15.0281V10H13.7681ZM21.1919 10V0.200005H22.4519V7.48H22.5219L25.3219 0.200005H26.7919V10H25.5319V2.72H25.4619L22.5919 10H21.1919ZM30.1525 10V1.18H27.9125V0.200005H33.6525V1.18H31.4125V10H30.1525ZM37.0081 10.14C36.1401 10.14 35.3934 10.0467 34.7681 9.86V0.200005H36.0281V4.19C36.2147 4.15267 36.4434 4.12 36.7141 4.092C36.9847 4.064 37.2227 4.05 37.4281 4.05C38.3521 4.05 39.0241 4.288 39.4441 4.764C39.8734 5.24 40.0881 6.02867 40.0881 7.13C40.0881 7.858 39.9854 8.44133 39.7801 8.88C39.5747 9.31867 39.2481 9.64067 38.8001 9.846C38.3614 10.042 37.7641 10.14 37.0081 10.14ZM37.0081 9.23C37.6521 9.23 38.1141 9.07133 38.3941 8.754C38.6834 8.42733 38.8281 7.886 38.8281 7.13C38.8281 6.374 38.6834 5.83734 38.3941 5.52C38.1141 5.19334 37.6521 5.03 37.0081 5.03H36.0281V9.23H37.0081Z" fill="white"/>
</svg>
