<svg width="75" height="21" viewBox="0 0 75 21" fill="none" xmlns="http://www.w3.org/2000/svg">
<path d="M31.2743 17.21C29.9723 17.21 28.8523 17.07 27.9143 16.79V2.51C28.8523 2.23 29.9723 2.09 31.2743 2.09C32.7303 2.09 33.7943 2.405 34.4663 3.035C35.1383 3.665 35.4743 4.645 35.4743 5.975C35.4743 7.431 34.9143 8.467 33.7943 9.083V9.167C35.3343 9.615 36.1043 10.896 36.1043 13.01C36.1043 14.004 35.9433 14.809 35.6213 15.425C35.3133 16.041 34.8093 16.496 34.1093 16.79C33.4093 17.07 32.4643 17.21 31.2743 17.21ZM31.0643 8.6C31.9043 8.6 32.5343 8.383 32.9543 7.949C33.3743 7.515 33.5843 6.857 33.5843 5.975C33.5843 4.295 32.7443 3.455 31.0643 3.455H29.8043V8.6H31.0643ZM31.2743 15.845C32.3243 15.845 33.0733 15.628 33.5213 15.194C33.9833 14.746 34.2143 14.018 34.2143 13.01C34.2143 11.918 33.9833 11.141 33.5213 10.679C33.0733 10.203 32.3243 9.965 31.2743 9.965H29.8043V15.845H31.2743ZM41.7743 17.21C40.4583 17.21 39.4783 16.797 38.8343 15.971C38.2043 15.131 37.8893 13.724 37.8893 11.75C37.8893 9.776 38.2043 8.376 38.8343 7.55C39.4783 6.71 40.4583 6.29 41.7743 6.29C43.0903 6.29 44.0633 6.71 44.6933 7.55C45.3373 8.376 45.6593 9.776 45.6593 11.75C45.6593 13.724 45.3373 15.131 44.6933 15.971C44.0633 16.797 43.0903 17.21 41.7743 17.21ZM41.7743 16.055C42.3623 16.055 42.8383 15.726 43.2023 15.068C43.5803 14.41 43.7693 13.304 43.7693 11.75C43.7693 10.196 43.5803 9.09 43.2023 8.432C42.8383 7.774 42.3623 7.445 41.7743 7.445C41.1863 7.445 40.7033 7.774 40.3253 8.432C39.9613 9.09 39.7793 10.196 39.7793 11.75C39.7793 13.304 39.9613 14.41 40.3253 15.068C40.7033 15.726 41.1863 16.055 41.7743 16.055ZM51.5385 5.24C50.8805 5.24 50.3135 5.107 49.8375 4.841C49.3615 4.575 48.9835 4.218 48.7035 3.77L49.5435 2.93C49.7815 3.168 50.0755 3.371 50.4255 3.539C50.7755 3.693 51.1465 3.77 51.5385 3.77C51.9305 3.77 52.3015 3.693 52.6515 3.539C53.0015 3.371 53.2955 3.168 53.5335 2.93L54.3735 3.77C54.0935 4.218 53.7155 4.575 53.2395 4.841C52.7635 5.107 52.1965 5.24 51.5385 5.24ZM47.9685 17V6.5H49.8585V13.64H49.9635L53.1135 6.5H55.3185V17H53.4285V9.65H53.3235L49.9635 17H47.9685ZM59.6334 17V7.865H56.9034V6.5H64.2534V7.865H61.5234V17H59.6334ZM65.8308 17V6.5H67.7208V13.64H67.8258L70.9758 6.5H73.1808V17H71.2908V9.65H71.1858L67.8258 17H65.8308Z" fill="black"/>
<path d="M14.1667 10.5L5.71429 2V8H0V13H5.71429V19L14.1667 10.5Z" fill="#C5C5C5"/>
<path d="M16.177 17.01H11.3894V19H16.177C18.2513 19 19.038 17.19 19.0618 15.974V5.028C19.038 3.811 18.2513 2 16.177 2H11.3894V3.99H16.177C16.9761 3.99 17.1218 4.671 17.1389 5.047V15.951C17.1227 16.327 16.9761 17.01 16.177 17.01Z" fill="#C5C5C5"/>
</svg>
